<svg width="107" height="31" viewBox="0 0 107 31" fill="none" xmlns="http://www.w3.org/2000/svg">
<g clip-path="url(#clip0_1001_5)">
<path d="M0 31.0292V0H21.8871V31.0292H0ZM18.722 27.9047V3.12457H3.15384V27.9047H18.722Z" fill="#FFCC00"/>
<path d="M36.4284 13.919H35.0705C33.2929 11.4355 31.5295 8.96607 29.7678 6.1749H29.753V13.919H28.2556V3.11935H29.6123C31.3906 5.58765 33.1522 8.04016 34.8985 10.8167H34.9304V3.11935H36.4284V13.919ZM39.9831 9.64514C40.4188 8.22616 40.8562 6.91363 41.2452 5.24782H41.2765C41.7128 6.9148 42.1042 8.22616 42.5091 9.64631H39.9831V9.64514ZM40.7013 3.11993L36.9262 13.9196H38.5489L39.4948 10.9717H42.7816L43.6388 13.9196H45.7256L42.2561 3.11935H40.7013V3.11993ZM47.4997 13.919V4.56933H44.6296V3.11876H52.2396V4.56933H49.3707V13.919H47.4997ZM52.8473 13.919V3.11935H54.7036V13.919H52.8473ZM60.4733 12.5621C58.5224 12.5621 57.8367 10.4313 57.8367 8.36537C57.8367 6.37435 58.617 4.47575 60.4733 4.47575C62.3277 4.47575 63.1081 6.37435 63.1081 8.36537C63.1081 10.4313 62.4223 12.5621 60.4733 12.5621ZM60.4733 14.1039C63.3262 14.1039 65.1038 11.5905 65.1038 8.36595C65.1038 5.33965 63.1353 2.93335 60.4691 2.93335C57.803 2.93335 55.8344 5.34024 55.8344 8.36537C55.8344 11.5905 57.6079 14.1033 60.4632 14.1033L60.4733 14.1039ZM74.414 13.919H73.0573C71.2791 11.4355 69.518 8.96607 67.7558 6.1749H67.738V13.919H66.2424V3.11935H67.6003C69.3779 5.58765 71.1414 8.04016 72.8853 10.8167H72.9178V3.11935H74.4134V13.919H74.414ZM77.9698 9.64514C78.4061 8.22616 78.843 6.91363 79.2326 5.24782H79.2621C79.6996 6.9148 80.0838 8.22616 80.4917 9.64631H77.9616L77.9698 9.64514ZM78.6863 3.11935L74.9124 13.919H76.5381L77.4898 10.9711H80.7767L81.6398 13.919H83.7325L80.2505 3.11935H78.6958H78.6863ZM84.2698 3.11935H86.1249V12.4685H89.8197V13.919H84.2687V3.11876L84.2698 3.11935ZM35.2757 22.9547V27.4128C34.2778 27.8006 33.2326 28.0767 32.1721 28.0767C28.9603 28.0767 26.9326 25.6084 26.9326 22.43C26.9326 19.4838 28.9603 16.9056 32.2353 16.9056C33.2462 16.9056 34.2571 17.2776 34.8837 17.7408L34.2748 19.0218C33.7723 18.7118 32.992 18.4544 32.2767 18.4544C30.2786 18.4544 28.9189 20.0161 28.9189 22.4669C28.9189 25.0287 30.4796 26.5437 32.0816 26.5437C32.58 26.5437 33.0009 26.4852 33.3905 26.2863V22.964H35.2597L35.2757 22.9547ZM41.9646 18.5427H38.8451V21.5041H41.9014V22.9547H38.8451V26.4407H42.5268V27.8924H36.9741V17.0922H41.9635V18.5427H41.9646ZM47.7344 26.5343C45.7853 26.5343 45.0996 24.4052 45.0996 22.3376C45.0996 20.3477 45.8787 18.4491 47.7344 18.4491C49.5906 18.4491 50.3709 20.3477 50.3709 22.3376C50.3709 24.4064 49.6852 26.5343 47.7344 26.5343ZM47.7344 28.0767C50.5897 28.0767 52.3667 25.5616 52.3667 22.3376C52.3667 19.3136 50.4011 16.905 47.7344 16.905C45.0682 16.905 43.1038 19.313 43.1038 22.3376C43.1038 25.5616 44.8808 28.0767 47.7344 28.0767ZM61.3488 22.9547V27.4128C60.3497 27.8006 59.3051 28.0767 58.2452 28.0767C55.0328 28.0767 53.0063 25.6084 53.0063 22.43C53.0063 19.4838 55.034 16.9056 58.3079 16.9056C59.3235 16.9056 60.3355 17.2776 60.9592 17.7408L60.3503 19.0218C59.852 18.7118 59.0722 18.4544 58.3551 18.4544C56.3588 18.4544 55.0015 20.0161 55.0015 22.4669C55.0015 25.0287 56.561 26.5437 58.1666 26.5437C58.6655 26.5437 59.0888 26.4852 59.4778 26.2863V22.964H61.3494L61.3488 22.9547ZM64.9342 18.5427H65.7618C66.8696 18.5427 67.4909 19.1762 67.4909 20.2857C67.4909 21.7346 66.6042 22.3838 65.7139 22.4294C65.5307 22.4446 65.0932 22.461 64.9395 22.4774V18.5416L64.9342 18.5427ZM69.6753 27.893L67.4773 23.4185C68.6774 22.7856 69.3649 21.5047 69.3649 20.2103C69.3649 18.1105 68.0703 17.0927 65.9788 17.0927H63.0584V27.8942H64.9265V23.8197H65.7659L67.5276 27.893H69.6617V27.8919L69.6753 27.893ZM72.7635 23.6174C73.198 22.1996 73.6355 20.8888 74.0256 19.2224H74.0611C74.4986 20.8894 74.8887 22.1996 75.2966 23.6174H72.7724H72.7635ZM73.4788 17.0922L69.7072 27.8936H71.3282L72.2799 24.9457H75.5703L76.4275 27.8936H78.5179L75.0395 17.0904H73.4788V17.0922ZM82.027 17.0922H79.1096V27.8942H80.9836V23.8203H81.8289C84.0635 23.8203 85.4173 22.0294 85.4173 20.2103C85.4173 18.1105 84.1226 17.0927 82.0358 17.0927L82.027 17.0922ZM81.7627 22.43C81.5676 22.4452 81.1125 22.4593 80.9765 22.475V18.5427H81.8159C82.9096 18.5427 83.5303 19.1762 83.5303 20.2857C83.5303 21.7346 82.6376 22.3844 81.7509 22.43H81.7627ZM94.0766 27.893H92.2026V22.6915H88.3187V27.893H86.4625V17.0922H88.3128V21.2438H92.1967V17.1226H94.0665V27.893H94.0766ZM95.8678 17.0922H97.7181V27.8942H95.8619L95.8678 17.0922ZM106.142 19.0516C105.687 18.7726 104.942 18.4491 104.221 18.4491C102.317 18.4491 100.929 20.0079 100.929 22.4616C100.929 25.0217 102.456 26.5343 104.265 26.5343C104.982 26.5343 105.654 26.3027 106.136 25.9938L106.652 27.3391C106.091 27.7252 105.092 28.082 104.187 28.082C100.972 28.082 98.946 25.6137 98.946 22.4376C98.946 19.4955 100.958 16.9161 104.219 16.9161C105.183 16.9161 106.087 17.3197 106.726 17.7525L106.133 19.0668L106.142 19.0516Z" fill="white"/>
</g>
<defs>
<clipPath id="clip0_1001_5">
<rect width="107" height="31" fill="white"/>
</clipPath>
</defs>
</svg>
